<svg width="20" height="20" viewBox="0 0 20 20" fill="none" xmlns="http://www.w3.org/2000/svg">
<path d="M10 2.04599C7.78986 2.04599 5.67025 2.88405 4.10744 4.37582C2.54464 5.86759 1.66667 7.89086 1.66667 10.0005V11.5914H3.33333C3.77536 11.5914 4.19928 11.7591 4.51184 12.0574C4.8244 12.3558 5 12.7604 5 13.1824V17.9551C5 18.377 4.8244 18.7817 4.51184 19.08C4.19928 19.3784 3.77536 19.546 3.33333 19.546H1.66667C1.22464 19.546 0.800716 19.3784 0.488155 19.08C0.175595 18.7817 0 18.377 0 17.9551V10.0005C-1.95685e-08 8.74701 0.258658 7.50575 0.761205 6.34765C1.26375 5.18954 2.00035 4.13725 2.92893 3.25088C3.85752 2.3645 4.95991 1.66139 6.17317 1.18168C7.38642 0.701979 8.68678 0.455078 10 0.455078C11.3132 0.455078 12.6136 0.701979 13.8268 1.18168C15.0401 1.66139 16.1425 2.3645 17.0711 3.25088C17.9997 4.13725 18.7362 5.18954 19.2388 6.34765C19.7413 7.50575 20 8.74701 20 10.0005V17.9551C20 18.377 19.8244 18.7817 19.5118 19.08C19.1993 19.3784 18.7754 19.546 18.3333 19.546H16.6667C16.2246 19.546 15.8007 19.3784 15.4882 19.08C15.1756 18.7817 15 18.377 15 17.9551V13.1824C15 12.7604 15.1756 12.3558 15.4882 12.0574C15.8007 11.7591 16.2246 11.5914 16.6667 11.5914H18.3333V10.0005C18.3333 7.89086 17.4554 5.86759 15.8926 4.37582C14.3298 2.88405 12.2101 2.04599 10 2.04599Z" fill="#64CCC5"/>
</svg>
